<!DOCTYPE svg PUBLIC "-//W3C//DTD SVG 1.1//EN" "http://www.w3.org/Graphics/SVG/1.1/DTD/svg11.dtd">
<!-- Uploaded to: SVG Repo, www.svgrepo.com, Transformed by: SVG Repo Mixer Tools -->
<svg fill="#000000" height="800px" width="800px" version="1.1" id="Layer_1" xmlns="http://www.w3.org/2000/svg" xmlns:xlink="http://www.w3.org/1999/xlink" viewBox="-43.2 -43.2 566.40 566.40" xml:space="preserve">
<g id="SVGRepo_bgCarrier" stroke-width="0"/>
<g id="SVGRepo_tracerCarrier" stroke-linecap="round" stroke-linejoin="round"/>
<g id="SVGRepo_iconCarrier"> <g> <g> <g> <path d="M469.341,0H117.184c-5.523,0-10,4.477-10,10v38.366L8.695,68.086c-5.377,1.077-8.884,6.282-7.861,11.67l74.421,392.108 c0.504,2.655,2.061,4.993,4.317,6.482c1.647,1.087,3.565,1.653,5.508,1.653c0.717,0,1.438-0.077,2.149-0.234l275.581-60.65 h106.532c5.523,0,10-4.477,10-10V10C479.341,4.477,474.864,0,469.341,0z M92.984,458.021L22.329,85.753l84.854-16.991v340.353 c0,5.523,4.477,10,10,10H269.76L92.984,458.021z M459.341,399.115h-97.706v0.001c-0.025,0-0.05,0-0.075,0H127.184v-68.768 L236.08,221.452l70.249,79.109c1.83,2.06,4.428,3.274,7.182,3.355c2.753,0.086,5.42-0.977,7.368-2.926l96.523-96.551 l41.939,42.769V399.115z M459.341,218.643l-34.73-35.418c-1.869-1.906-4.422-2.985-7.092-2.999 c-2.645-0.039-5.233,1.042-7.121,2.93l-96.162,96.189l-70.248-79.108c-1.83-2.06-4.428-3.274-7.181-3.355 c-2.75-0.078-5.419,0.977-7.368,2.924L127.184,302.063V20h332.157V218.643z"/> <path d="M316.232,204.149c39.499,0,71.633-32.134,71.633-71.633s-32.134-71.633-71.633-71.633 c-39.499,0-71.633,32.134-71.633,71.633S276.734,204.149,316.232,204.149z M316.232,80.884c28.47,0,51.633,23.163,51.633,51.633 c0,28.47-23.163,51.633-51.633,51.633c-28.47,0-51.633-23.163-51.633-51.633C264.599,104.047,287.762,80.884,316.232,80.884z"/> </g> </g> </g> </g>
</svg>